<mxfile host="app.diagrams.net" agent="Mozilla/5.0 (Windows NT 10.0; Win64; x64) AppleWebKit/537.36 (KHTML, like Gecko) Chrome/140.0.0.0 Safari/537.36" version="28.2.5">
  <diagram name="Página-1" id="5jOG96zp6DSfNarMLMhC">
    <mxGraphModel dx="1985" dy="872" grid="1" gridSize="10" guides="1" tooltips="1" connect="1" arrows="1" fold="1" page="1" pageScale="1" pageWidth="827" pageHeight="1169" math="0" shadow="0">
      <root>
        <mxCell id="0" />
        <mxCell id="1" parent="0" />
        <mxCell id="3fvQTR_CH0SU9GA_Nz22-1" value="publicacion" style="rounded=1;whiteSpace=wrap;html=1;" vertex="1" parent="1">
          <mxGeometry x="-120" y="280" width="120" height="60" as="geometry" />
        </mxCell>
        <mxCell id="3fvQTR_CH0SU9GA_Nz22-2" value="titulo" style="ellipse;whiteSpace=wrap;html=1;" vertex="1" parent="1">
          <mxGeometry x="-290" y="360" width="80" height="60" as="geometry" />
        </mxCell>
        <mxCell id="3fvQTR_CH0SU9GA_Nz22-3" value="" style="endArrow=none;html=1;rounded=0;exitX=1;exitY=0;exitDx=0;exitDy=0;entryX=0;entryY=0.75;entryDx=0;entryDy=0;" edge="1" parent="1" source="3fvQTR_CH0SU9GA_Nz22-2" target="3fvQTR_CH0SU9GA_Nz22-1">
          <mxGeometry width="50" height="50" relative="1" as="geometry">
            <mxPoint x="-90" y="330" as="sourcePoint" />
            <mxPoint x="-40" y="280" as="targetPoint" />
          </mxGeometry>
        </mxCell>
        <mxCell id="3fvQTR_CH0SU9GA_Nz22-5" value="" style="endArrow=none;html=1;rounded=0;exitX=0.5;exitY=0;exitDx=0;exitDy=0;entryX=0.5;entryY=1;entryDx=0;entryDy=0;" edge="1" parent="1" source="3fvQTR_CH0SU9GA_Nz22-41" target="3fvQTR_CH0SU9GA_Nz22-1">
          <mxGeometry width="50" height="50" relative="1" as="geometry">
            <mxPoint x="-140" y="525" as="sourcePoint" />
            <mxPoint x="60" y="330" as="targetPoint" />
          </mxGeometry>
        </mxCell>
        <mxCell id="3fvQTR_CH0SU9GA_Nz22-6" value="Numero" style="ellipse;whiteSpace=wrap;html=1;" vertex="1" parent="1">
          <mxGeometry x="-280" y="170" width="80" height="60" as="geometry" />
        </mxCell>
        <mxCell id="3fvQTR_CH0SU9GA_Nz22-7" value="" style="endArrow=none;html=1;rounded=0;exitX=1;exitY=1;exitDx=0;exitDy=0;entryX=0;entryY=0;entryDx=0;entryDy=0;" edge="1" parent="1" source="3fvQTR_CH0SU9GA_Nz22-6" target="3fvQTR_CH0SU9GA_Nz22-1">
          <mxGeometry width="50" height="50" relative="1" as="geometry">
            <mxPoint x="134" y="270" as="sourcePoint" />
            <mxPoint x="164" y="280" as="targetPoint" />
          </mxGeometry>
        </mxCell>
        <mxCell id="3fvQTR_CH0SU9GA_Nz22-8" value="Año de publicacion" style="ellipse;whiteSpace=wrap;html=1;" vertex="1" parent="1">
          <mxGeometry x="-320" y="260" width="80" height="60" as="geometry" />
        </mxCell>
        <mxCell id="3fvQTR_CH0SU9GA_Nz22-9" value="" style="endArrow=none;html=1;rounded=0;exitX=1;exitY=0.5;exitDx=0;exitDy=0;entryX=0;entryY=0.25;entryDx=0;entryDy=0;" edge="1" parent="1" source="3fvQTR_CH0SU9GA_Nz22-8" target="3fvQTR_CH0SU9GA_Nz22-1">
          <mxGeometry width="50" height="50" relative="1" as="geometry">
            <mxPoint x="190" y="510" as="sourcePoint" />
            <mxPoint x="220" y="520" as="targetPoint" />
          </mxGeometry>
        </mxCell>
        <mxCell id="3fvQTR_CH0SU9GA_Nz22-32" style="edgeStyle=orthogonalEdgeStyle;rounded=0;orthogonalLoop=1;jettySize=auto;html=1;exitX=1;exitY=0.5;exitDx=0;exitDy=0;entryX=0;entryY=0.5;entryDx=0;entryDy=0;" edge="1" parent="1" source="3fvQTR_CH0SU9GA_Nz22-34" target="3fvQTR_CH0SU9GA_Nz22-19">
          <mxGeometry relative="1" as="geometry" />
        </mxCell>
        <mxCell id="3fvQTR_CH0SU9GA_Nz22-38" style="edgeStyle=orthogonalEdgeStyle;rounded=0;orthogonalLoop=1;jettySize=auto;html=1;exitX=1;exitY=0.5;exitDx=0;exitDy=0;entryX=0;entryY=0.5;entryDx=0;entryDy=0;" edge="1" parent="1" source="3fvQTR_CH0SU9GA_Nz22-10" target="3fvQTR_CH0SU9GA_Nz22-37">
          <mxGeometry relative="1" as="geometry" />
        </mxCell>
        <mxCell id="3fvQTR_CH0SU9GA_Nz22-10" value="articulos publicados" style="rounded=1;whiteSpace=wrap;html=1;" vertex="1" parent="1">
          <mxGeometry x="349" y="280" width="130" height="60" as="geometry" />
        </mxCell>
        <mxCell id="3fvQTR_CH0SU9GA_Nz22-11" value="titulo (id)" style="ellipse;whiteSpace=wrap;html=1;" vertex="1" parent="1">
          <mxGeometry x="350" y="410" width="80" height="60" as="geometry" />
        </mxCell>
        <mxCell id="3fvQTR_CH0SU9GA_Nz22-12" value="" style="endArrow=none;html=1;rounded=0;exitX=0.5;exitY=0;exitDx=0;exitDy=0;entryX=0.25;entryY=1;entryDx=0;entryDy=0;" edge="1" parent="1" source="3fvQTR_CH0SU9GA_Nz22-11" target="3fvQTR_CH0SU9GA_Nz22-10">
          <mxGeometry width="50" height="50" relative="1" as="geometry">
            <mxPoint x="360" y="330" as="sourcePoint" />
            <mxPoint x="390" y="340" as="targetPoint" />
          </mxGeometry>
        </mxCell>
        <mxCell id="3fvQTR_CH0SU9GA_Nz22-13" value="Pagina de inicio" style="ellipse;whiteSpace=wrap;html=1;" vertex="1" parent="1">
          <mxGeometry x="75" y="380" width="80" height="60" as="geometry" />
        </mxCell>
        <mxCell id="3fvQTR_CH0SU9GA_Nz22-14" value="" style="endArrow=none;html=1;rounded=0;exitX=0.5;exitY=0;exitDx=0;exitDy=0;entryX=0;entryY=1;entryDx=0;entryDy=0;" edge="1" parent="1" source="3fvQTR_CH0SU9GA_Nz22-13" target="3fvQTR_CH0SU9GA_Nz22-29">
          <mxGeometry width="50" height="50" relative="1" as="geometry">
            <mxPoint x="-25" y="340" as="sourcePoint" />
            <mxPoint x="135" y="350" as="targetPoint" />
          </mxGeometry>
        </mxCell>
        <mxCell id="3fvQTR_CH0SU9GA_Nz22-15" value="Pagina de fin" style="ellipse;whiteSpace=wrap;html=1;" vertex="1" parent="1">
          <mxGeometry x="165" y="385" width="80" height="60" as="geometry" />
        </mxCell>
        <mxCell id="3fvQTR_CH0SU9GA_Nz22-16" value="" style="endArrow=none;html=1;rounded=0;exitX=0.5;exitY=0;exitDx=0;exitDy=0;entryX=1;entryY=1;entryDx=0;entryDy=0;" edge="1" parent="1" source="3fvQTR_CH0SU9GA_Nz22-15" target="3fvQTR_CH0SU9GA_Nz22-29">
          <mxGeometry width="50" height="50" relative="1" as="geometry">
            <mxPoint x="-35" y="490" as="sourcePoint" />
            <mxPoint x="175" y="350" as="targetPoint" />
          </mxGeometry>
        </mxCell>
        <mxCell id="3fvQTR_CH0SU9GA_Nz22-18" value="1" style="text;html=1;align=center;verticalAlign=middle;resizable=0;points=[];autosize=1;strokeColor=none;fillColor=none;" vertex="1" parent="1">
          <mxGeometry y="280" width="30" height="30" as="geometry" />
        </mxCell>
        <mxCell id="3fvQTR_CH0SU9GA_Nz22-19" value="autores" style="rounded=1;whiteSpace=wrap;html=1;" vertex="1" parent="1">
          <mxGeometry x="830" y="285" width="120" height="60" as="geometry" />
        </mxCell>
        <mxCell id="3fvQTR_CH0SU9GA_Nz22-20" value="nombre&lt;span style=&quot;color: rgba(0, 0, 0, 0); font-family: monospace; font-size: 0px; text-align: start; text-wrap-mode: nowrap;&quot;&gt;%3CmxGraphModel%3E%3Croot%3E%3CmxCell%20id%3D%220%22%2F%3E%3CmxCell%20id%3D%221%22%20parent%3D%220%22%2F%3E%3CmxCell%20id%3D%222%22%20value%3D%22titulo%22%20style%3D%22ellipse%3BwhiteSpace%3Dwrap%3Bhtml%3D1%3B%22%20vertex%3D%221%22%20parent%3D%221%22%3E%3CmxGeometry%20x%3D%22110%22%20y%3D%22400%22%20width%3D%2280%22%20height%3D%2260%22%20as%3D%22geometry%22%2F%3E%3C%2FmxCell%3E%3CmxCell%20id%3D%223%22%20value%3D%22%22%20style%3D%22endArrow%3Dnone%3Bhtml%3D1%3Brounded%3D0%3BexitX%3D0.5%3BexitY%3D0%3BexitDx%3D0%3BexitDy%3D0%3BentryX%3D0.5%3BentryY%3D1%3BentryDx%3D0%3BentryDy%3D0%3B%22%20edge%3D%221%22%20source%3D%222%22%20parent%3D%221%22%3E%3CmxGeometry%20width%3D%2250%22%20height%3D%2250%22%20relative%3D%221%22%20as%3D%22geometry%22%3E%3CmxPoint%20x%3D%22120%22%20y%3D%22320%22%20as%3D%22sourcePoint%22%2F%3E%3CmxPoint%20x%3D%22150%22%20y%3D%22330%22%20as%3D%22targetPoint%22%2F%3E%3C%2FmxGeometry%3E%3C%2FmxCell%3E%3C%2Froot%3E%3C%2FmxGraphModel%3E&lt;/span&gt;" style="ellipse;whiteSpace=wrap;html=1;" vertex="1" parent="1">
          <mxGeometry x="940" y="175" width="80" height="60" as="geometry" />
        </mxCell>
        <mxCell id="3fvQTR_CH0SU9GA_Nz22-21" value="" style="endArrow=none;html=1;rounded=0;exitX=0;exitY=1;exitDx=0;exitDy=0;entryX=0.75;entryY=0;entryDx=0;entryDy=0;" edge="1" parent="1" source="3fvQTR_CH0SU9GA_Nz22-20" target="3fvQTR_CH0SU9GA_Nz22-19">
          <mxGeometry width="50" height="50" relative="1" as="geometry">
            <mxPoint x="900" y="495" as="sourcePoint" />
            <mxPoint x="930" y="505" as="targetPoint" />
          </mxGeometry>
        </mxCell>
        <mxCell id="3fvQTR_CH0SU9GA_Nz22-22" value="direccion de correo" style="ellipse;whiteSpace=wrap;html=1;" vertex="1" parent="1">
          <mxGeometry x="980" y="345" width="80" height="60" as="geometry" />
        </mxCell>
        <mxCell id="3fvQTR_CH0SU9GA_Nz22-23" value="" style="endArrow=none;html=1;rounded=0;entryX=1;entryY=1;entryDx=0;entryDy=0;" edge="1" parent="1" target="3fvQTR_CH0SU9GA_Nz22-19">
          <mxGeometry width="50" height="50" relative="1" as="geometry">
            <mxPoint x="990" y="355" as="sourcePoint" />
            <mxPoint x="820" y="585" as="targetPoint" />
          </mxGeometry>
        </mxCell>
        <mxCell id="3fvQTR_CH0SU9GA_Nz22-24" value="apartamento" style="ellipse;whiteSpace=wrap;html=1;" vertex="1" parent="1">
          <mxGeometry x="990" y="255" width="80" height="60" as="geometry" />
        </mxCell>
        <mxCell id="3fvQTR_CH0SU9GA_Nz22-25" value="" style="endArrow=none;html=1;rounded=0;exitX=0;exitY=0.5;exitDx=0;exitDy=0;entryX=1;entryY=0.25;entryDx=0;entryDy=0;" edge="1" parent="1" source="3fvQTR_CH0SU9GA_Nz22-24" target="3fvQTR_CH0SU9GA_Nz22-19">
          <mxGeometry width="50" height="50" relative="1" as="geometry">
            <mxPoint x="780" y="515" as="sourcePoint" />
            <mxPoint x="810" y="525" as="targetPoint" />
          </mxGeometry>
        </mxCell>
        <mxCell id="3fvQTR_CH0SU9GA_Nz22-26" value="posicion" style="ellipse;whiteSpace=wrap;html=1;" vertex="1" parent="1">
          <mxGeometry x="850" y="175" width="80" height="60" as="geometry" />
        </mxCell>
        <mxCell id="3fvQTR_CH0SU9GA_Nz22-27" value="" style="endArrow=none;html=1;rounded=0;exitX=0.5;exitY=1;exitDx=0;exitDy=0;entryX=0.5;entryY=0;entryDx=0;entryDy=0;" edge="1" parent="1" source="3fvQTR_CH0SU9GA_Nz22-26" target="3fvQTR_CH0SU9GA_Nz22-19">
          <mxGeometry width="50" height="50" relative="1" as="geometry">
            <mxPoint x="650" y="585" as="sourcePoint" />
            <mxPoint x="830" y="405" as="targetPoint" />
          </mxGeometry>
        </mxCell>
        <mxCell id="3fvQTR_CH0SU9GA_Nz22-28" value="N" style="text;html=1;align=center;verticalAlign=middle;resizable=0;points=[];autosize=1;strokeColor=none;fillColor=none;" vertex="1" parent="1">
          <mxGeometry x="319" y="280" width="30" height="30" as="geometry" />
        </mxCell>
        <mxCell id="3fvQTR_CH0SU9GA_Nz22-29" value="se relaciona" style="rhombus;whiteSpace=wrap;html=1;" vertex="1" parent="1">
          <mxGeometry x="120" y="270" width="80" height="80" as="geometry" />
        </mxCell>
        <mxCell id="3fvQTR_CH0SU9GA_Nz22-30" value="" style="endArrow=none;html=1;rounded=0;exitX=1;exitY=0.5;exitDx=0;exitDy=0;entryX=0;entryY=0.5;entryDx=0;entryDy=0;entryPerimeter=0;" edge="1" parent="1" source="3fvQTR_CH0SU9GA_Nz22-1" target="3fvQTR_CH0SU9GA_Nz22-29">
          <mxGeometry width="50" height="50" relative="1" as="geometry">
            <mxPoint x="200" y="380" as="sourcePoint" />
            <mxPoint x="250" y="330" as="targetPoint" />
          </mxGeometry>
        </mxCell>
        <mxCell id="3fvQTR_CH0SU9GA_Nz22-31" value="" style="endArrow=none;html=1;rounded=0;exitX=1;exitY=0.5;exitDx=0;exitDy=0;entryX=0;entryY=0.5;entryDx=0;entryDy=0;" edge="1" parent="1" source="3fvQTR_CH0SU9GA_Nz22-29" target="3fvQTR_CH0SU9GA_Nz22-10">
          <mxGeometry width="50" height="50" relative="1" as="geometry">
            <mxPoint x="200" y="380" as="sourcePoint" />
            <mxPoint x="250" y="330" as="targetPoint" />
          </mxGeometry>
        </mxCell>
        <mxCell id="3fvQTR_CH0SU9GA_Nz22-33" value="N" style="text;html=1;align=center;verticalAlign=middle;resizable=0;points=[];autosize=1;strokeColor=none;fillColor=none;" vertex="1" parent="1">
          <mxGeometry x="479" y="280" width="30" height="30" as="geometry" />
        </mxCell>
        <mxCell id="3fvQTR_CH0SU9GA_Nz22-34" value="M" style="text;html=1;align=center;verticalAlign=middle;resizable=0;points=[];autosize=1;strokeColor=none;fillColor=none;" vertex="1" parent="1">
          <mxGeometry x="797" y="285" width="30" height="30" as="geometry" />
        </mxCell>
        <mxCell id="3fvQTR_CH0SU9GA_Nz22-39" style="edgeStyle=orthogonalEdgeStyle;rounded=0;orthogonalLoop=1;jettySize=auto;html=1;exitX=1;exitY=0.5;exitDx=0;exitDy=0;entryX=0;entryY=0.5;entryDx=0;entryDy=0;" edge="1" parent="1" source="3fvQTR_CH0SU9GA_Nz22-37" target="3fvQTR_CH0SU9GA_Nz22-19">
          <mxGeometry relative="1" as="geometry">
            <mxPoint x="780" y="290" as="targetPoint" />
          </mxGeometry>
        </mxCell>
        <mxCell id="3fvQTR_CH0SU9GA_Nz22-37" value="se relaciona" style="rhombus;whiteSpace=wrap;html=1;" vertex="1" parent="1">
          <mxGeometry x="620" y="270" width="80" height="80" as="geometry" />
        </mxCell>
        <mxCell id="3fvQTR_CH0SU9GA_Nz22-41" value="ISSN" style="rhombus;whiteSpace=wrap;html=1;" vertex="1" parent="1">
          <mxGeometry x="-100" y="470" width="80" height="80" as="geometry" />
        </mxCell>
        <mxCell id="3fvQTR_CH0SU9GA_Nz22-42" value="revista" style="rounded=1;whiteSpace=wrap;html=1;" vertex="1" parent="1">
          <mxGeometry x="-120" y="650" width="120" height="60" as="geometry" />
        </mxCell>
        <mxCell id="3fvQTR_CH0SU9GA_Nz22-43" value="" style="endArrow=none;html=1;rounded=0;exitX=0.5;exitY=0;exitDx=0;exitDy=0;entryX=0.5;entryY=1;entryDx=0;entryDy=0;" edge="1" parent="1" source="3fvQTR_CH0SU9GA_Nz22-42" target="3fvQTR_CH0SU9GA_Nz22-41">
          <mxGeometry width="50" height="50" relative="1" as="geometry">
            <mxPoint x="-70" y="660" as="sourcePoint" />
            <mxPoint x="-30" y="530" as="targetPoint" />
          </mxGeometry>
        </mxCell>
        <mxCell id="3fvQTR_CH0SU9GA_Nz22-44" value="N" style="text;html=1;align=center;verticalAlign=middle;resizable=0;points=[];autosize=1;strokeColor=none;fillColor=none;" vertex="1" parent="1">
          <mxGeometry x="-65" y="338" width="30" height="30" as="geometry" />
        </mxCell>
        <mxCell id="3fvQTR_CH0SU9GA_Nz22-45" value="M" style="text;html=1;align=center;verticalAlign=middle;resizable=0;points=[];autosize=1;strokeColor=none;fillColor=none;" vertex="1" parent="1">
          <mxGeometry x="-65" y="618" width="30" height="30" as="geometry" />
        </mxCell>
      </root>
    </mxGraphModel>
  </diagram>
</mxfile>
